<svg xmlns="http://www.w3.org/2000/svg" width="1200" height="675" viewBox="0 0 1200 675">
<defs><linearGradient id="bg" x1="0" y1="0" x2="1" y2="1"><stop stop-color="#080b14"/><stop offset="1" stop-color="#352261"/></linearGradient><filter id="s"><feDropShadow dx="0" dy="18" stdDeviation="24" flood-opacity=".22"/></filter></defs>
<rect width="1200" height="675" fill="url(#bg)"/><circle cx="1040" cy="90" r="240" fill="white" opacity=".05"/><circle cx="90" cy="640" r="260" fill="white" opacity=".04"/>
<g filter="url(#s)"><g transform="translate(600 295)"><g fill="#7b61ff" opacity=".85"><rect x="-230" y="40" width="70" height="100" rx="8"/><rect x="-130" y="-10" width="70" height="150" rx="8"/><rect x="-30" y="-75" width="70" height="215" rx="8"/><rect x="70" y="-135" width="70" height="275" rx="8"/><rect x="170" y="-200" width="70" height="340" rx="8"/></g><path d="M-250 80C-120 50-40-30 40-55S155-110 245-195" fill="none" stroke="#65e6ff" stroke-width="10" stroke-linecap="round"/><circle cx="245" cy="-195" r="15" fill="#65e6ff"/><text x="-250" y="-145" fill="white" font-family="Arial,sans-serif" font-size="68" font-weight="700">$30T</text></g></g>
<text x="64" y="72" fill="white" opacity=".78" font-family="Arial,sans-serif" font-size="22" font-weight="700" letter-spacing="3">AI ECONOMY · INVESTMENT</text>
<text x="64" y="590" fill="white" font-family="Arial,sans-serif" font-size="42" font-weight="700">THE $30T AI QUESTION</text>
<text x="64" y="628" fill="white" opacity=".68" font-family="Arial,sans-serif" font-size="18" letter-spacing="2">TIGERIQ · EDITORIAL VISUAL</text></svg>