<svg xmlns="http://www.w3.org/2000/svg" width="1200" height="675" viewBox="0 0 1200 675">
<defs>
<linearGradient id="bg" x1="0" y1="0" x2="1" y2="1"><stop stop-color="#071713"/><stop offset=".48" stop-color="#0d4f46"/><stop offset="1" stop-color="#06100f"/></linearGradient>
<linearGradient id="desk" x1="0" y1="0" x2="1" y2="0"><stop stop-color="#3b2a20"/><stop offset=".55" stop-color="#8e6547"/><stop offset="1" stop-color="#342219"/></linearGradient>
<linearGradient id="screen" x1="0" y1="0" x2="1" y2="1"><stop stop-color="#06101a"/><stop offset=".55" stop-color="#0a2935"/><stop offset="1" stop-color="#0d4857"/></linearGradient>
<filter id="shadow" x="-30%" y="-30%" width="170%" height="190%"><feDropShadow dx="0" dy="22" stdDeviation="18" flood-color="#000" flood-opacity=".56"/></filter>
<filter id="blur"><feGaussianBlur stdDeviation="26"/></filter>
<radialGradient id="glow"><stop stop-color="#52ffe2" stop-opacity=".8"/><stop offset="1" stop-color="#52ffe2" stop-opacity="0"/></radialGradient>
</defs>
<rect width="1200" height="675" fill="url(#bg)"/>
<g opacity=".38" filter="url(#blur)"><circle cx="1050" cy="120" r="150" fill="#4ef4c9"/><circle cx="140" cy="170" r="110" fill="#1da7d8"/></g>
<rect y="515" width="1200" height="160" fill="url(#desk)"/>
<ellipse cx="600" cy="608" rx="430" ry="42" fill="#000" opacity=".45"/>
<g filter="url(#shadow)">
<polygon points="200,185 930,155 905,535 245,552" fill="#242d36" stroke="#758794" stroke-width="5"/>
<polygon points="236,218 895,190 874,502 276,516" fill="url(#screen)"/>
<polygon points="245,552 905,535 1040,607 392,630" fill="#78828c"/>
</g>
<g font-family="Consolas,Monaco,monospace" font-size="20">
<text x="310" y="274" fill="#70d8ff">export async function reviewPullRequest()</text>
<text x="310" y="308" fill="#f3c969">const</text><text x="372" y="308" fill="#d7e0ea"> result = await copilot.review(diff);</text>
<text x="310" y="342" fill="#aaef9b">if</text><text x="340" y="342" fill="#d7e0ea"> (result.blockingIssues.length === 0) {</text>
<text x="342" y="376" fill="#e69fff">return</text><text x="408" y="376" fill="#d7e0ea"> "PASS";</text>
<text x="310" y="410" fill="#d7e0ea">}</text>
</g>
<g opacity=".75"><rect x="648" y="252" width="178" height="178" rx="35" fill="#0d1c27" stroke="#62ffe5" stroke-width="4"/><circle cx="737" cy="330" r="72" fill="url(#glow)"/><path d="M695 323c0-26 19-48 42-48s42 22 42 48v34c0 19-19 35-42 35s-42-16-42-35z" fill="none" stroke="#83ffe9" stroke-width="6"/><circle cx="719" cy="330" r="6" fill="#83ffe9"/><circle cx="755" cy="330" r="6" fill="#83ffe9"/><path d="M720 358c12 9 23 9 35 0" fill="none" stroke="#83ffe9" stroke-width="5" stroke-linecap="round"/></g>
<g opacity=".9"><rect x="72" y="70" width="292" height="52" rx="26" fill="#071814" stroke="#4ea795"/><circle cx="104" cy="96" r="10" fill="#52ffe2"/><text x="130" y="104" fill="#f2fffc" font-family="Arial,Helvetica,sans-serif" font-size="23" font-weight="700">DEVELOPER AI</text></g>
</svg>